<?xml version="1.0" encoding="UTF-8" standalone="no"?>
<!DOCTYPE svg PUBLIC "-//W3C//DTD SVG 1.1//EN"
 "http://www.w3.org/Graphics/SVG/1.1/DTD/svg11.dtd">
<!-- Generated by graphviz version 2.50.0 (20211204.2007)
 -->
<!-- Title: fluxo_provider Pages: 1 -->
<svg width="566pt" height="366pt"
 viewBox="0.00 0.00 565.89 365.74" xmlns="http://www.w3.org/2000/svg" xmlns:xlink="http://www.w3.org/1999/xlink">
<g id="graph0" class="graph" transform="scale(1 1) rotate(0) translate(4 361.74)">
<title>fluxo_provider</title>
<polygon fill="white" stroke="transparent" points="-4,4 -4,-361.74 561.89,-361.74 561.89,4 -4,4"/>
<!-- a -->
<g id="node1" class="node">
<title>a</title>
<ellipse fill="none" stroke="black" cx="281.74" cy="-330.87" rx="88.28" ry="26.74"/>
<text text-anchor="start" x="258.24" y="-334.67" font-family="Times,serif" font-size="14.00">Provider</text>
<text text-anchor="start" x="227.24" y="-319.67" font-family="Times,serif" font-size="14.00" fill="red">LanguageController</text>
</g>
<!-- MyApp -->
<g id="node2" class="node">
<title>MyApp</title>
<ellipse fill="none" stroke="black" cx="281.74" cy="-177" rx="38.19" ry="18"/>
<text text-anchor="middle" x="281.74" y="-173.3" font-family="Times,serif" font-size="14.00">MyApp</text>
</g>
<!-- a&#45;&gt;MyApp -->
<g id="edge1" class="edge">
<title>a&#45;&gt;MyApp</title>
<path fill="none" stroke="red" d="M281.74,-293.74C281.74,-266.64 281.74,-230.12 281.74,-205.4"/>
<polygon fill="red" stroke="red" points="278.24,-293.76 281.74,-303.76 285.24,-293.76 278.24,-293.76"/>
<polygon fill="red" stroke="red" points="285.24,-205.27 281.74,-195.27 278.24,-205.27 285.24,-205.27"/>
</g>
<!-- ExercisesPage -->
<g id="node3" class="node">
<title>ExercisesPage</title>
<ellipse fill="none" stroke="black" cx="61.74" cy="-18" rx="61.99" ry="18"/>
<text text-anchor="middle" x="61.74" y="-14.3" font-family="Times,serif" font-size="14.00">ExercisesPage</text>
</g>
<!-- MyApp&#45;&gt;ExercisesPage -->
<g id="edge2" class="edge">
<title>MyApp&#45;&gt;ExercisesPage</title>
<path fill="none" stroke="red" d="M261.44,-161.51C222.67,-133.84 137.89,-73.34 92.26,-40.78"/>
<polygon fill="red" stroke="red" points="94.12,-37.81 83.95,-34.85 90.05,-43.5 94.12,-37.81"/>
<text text-anchor="middle" x="212.24" y="-93.8" font-family="Times,serif" font-size="14.00">_languageId</text>
</g>
<!-- HomePage -->
<g id="node4" class="node">
<title>HomePage</title>
<ellipse fill="none" stroke="black" cx="281.74" cy="-18" rx="50.09" ry="18"/>
<text text-anchor="middle" x="281.74" y="-14.3" font-family="Times,serif" font-size="14.00">HomePage</text>
</g>
<!-- MyApp&#45;&gt;HomePage -->
<g id="edge3" class="edge">
<title>MyApp&#45;&gt;HomePage</title>
<path fill="none" stroke="red" d="M281.74,-148.77C281.74,-120.02 281.74,-74.98 281.74,-46.23"/>
<polygon fill="red" stroke="red" points="278.24,-148.9 281.74,-158.9 285.24,-148.9 278.24,-148.9"/>
<polygon fill="red" stroke="red" points="285.24,-46.08 281.74,-36.08 278.24,-46.08 285.24,-46.08"/>
<text text-anchor="middle" x="315.24" y="-93.8" font-family="Times,serif" font-size="14.00">_languageId</text>
</g>
<!-- GymTabPage -->
<g id="node5" class="node">
<title>GymTabPage</title>
<ellipse fill="none" stroke="black" cx="498.74" cy="-18" rx="59.29" ry="18"/>
<text text-anchor="middle" x="498.74" y="-14.3" font-family="Times,serif" font-size="14.00">GymTabPage</text>
</g>
<!-- MyApp&#45;&gt;GymTabPage -->
<g id="edge4" class="edge">
<title>MyApp&#45;&gt;GymTabPage</title>
<path fill="none" stroke="black" d="M301.77,-161.51C340.02,-133.84 423.64,-73.34 468.65,-40.78"/>
<polygon fill="black" stroke="black" points="470.79,-43.54 476.84,-34.85 466.69,-37.87 470.79,-43.54"/>
</g>
</g>
</svg>
