<?xml version="1.0" encoding="UTF-8" standalone="no"?>
<!DOCTYPE svg PUBLIC "-//W3C//DTD SVG 1.1//EN"
 "http://www.w3.org/Graphics/SVG/1.1/DTD/svg11.dtd">
<!-- Generated by graphviz version 2.50.0 (20211204.2007)
 -->
<!-- Title: myapp Pages: 1 -->
<svg width="386pt" height="116pt"
 viewBox="0.00 0.00 385.89 116.00" xmlns="http://www.w3.org/2000/svg" xmlns:xlink="http://www.w3.org/1999/xlink">
<g id="graph0" class="graph" transform="scale(1 1) rotate(0) translate(4 112)">
<title>myapp</title>
<polygon fill="white" stroke="transparent" points="-4,4 -4,-112 381.89,-112 381.89,4 -4,4"/>
<!-- MyApp -->
<g id="node1" class="node">
<title>MyApp</title>
<ellipse fill="none" stroke="black" cx="191.74" cy="-90" rx="38.19" ry="18"/>
<text text-anchor="middle" x="191.74" y="-86.3" font-family="Times,serif" font-size="14.00">MyApp</text>
</g>
<!-- ExercisesPage -->
<g id="node2" class="node">
<title>ExercisesPage</title>
<ellipse fill="none" stroke="black" cx="61.74" cy="-18" rx="61.99" ry="18"/>
<text text-anchor="middle" x="61.74" y="-14.3" font-family="Times,serif" font-size="14.00">ExercisesPage</text>
</g>
<!-- MyApp&#45;&#45;ExercisesPage -->
<g id="edge1" class="edge">
<title>MyApp&#45;&#45;ExercisesPage</title>
<path fill="none" stroke="black" d="M167.6,-76C145.57,-64.14 113.01,-46.61 89.83,-34.12"/>
</g>
<!-- HomePage -->
<g id="node3" class="node">
<title>HomePage</title>
<ellipse fill="none" stroke="black" cx="191.74" cy="-18" rx="50.09" ry="18"/>
<text text-anchor="middle" x="191.74" y="-14.3" font-family="Times,serif" font-size="14.00">HomePage</text>
</g>
<!-- MyApp&#45;&#45;HomePage -->
<g id="edge2" class="edge">
<title>MyApp&#45;&#45;HomePage</title>
<path fill="none" stroke="black" d="M191.74,-71.7C191.74,-60.85 191.74,-46.92 191.74,-36.1"/>
</g>
<!-- GymTabPage -->
<g id="node4" class="node">
<title>GymTabPage</title>
<ellipse fill="none" stroke="black" cx="318.74" cy="-18" rx="59.29" ry="18"/>
<text text-anchor="middle" x="318.74" y="-14.3" font-family="Times,serif" font-size="14.00">GymTabPage</text>
</g>
<!-- MyApp&#45;&#45;GymTabPage -->
<g id="edge3" class="edge">
<title>MyApp&#45;&#45;GymTabPage</title>
<path fill="none" stroke="black" d="M215.63,-75.83C237.19,-63.95 268.88,-46.48 291.44,-34.05"/>
</g>
</g>
</svg>
